<?xml version="1.0" standalone="no"?>
<!DOCTYPE svg PUBLIC "-//W3C//DTD SVG 20010904//EN"
 "http://www.w3.org/TR/2001/REC-SVG-20010904/DTD/svg10.dtd">
<svg version="1.0" xmlns="http://www.w3.org/2000/svg"
 width="1280.000000pt" height="640.000000pt" viewBox="0 0 1280.000000 640.000000"
 preserveAspectRatio="xMidYMid meet">
<metadata>
Created by potrace 1.16, written by Peter Selinger 2001-2019
</metadata>
<g transform="translate(0.000000,640.000000) scale(0.100000,-0.100000)"
fill="#000000" stroke="none">
<path d="M0 3200 l0 -3200 6400 0 6400 0 0 3200 0 3200 -6400 0 -6400 0 0
-3200z m5402 1879 c387 -42 634 -232 719 -554 27 -103 31 -370 6 -480 -41
-183 -113 -319 -228 -434 -108 -109 -211 -165 -387 -213 -62 -17 -109 -21
-247 -22 l-170 -2 -3 -316 -2 -316 133 -4 c147 -3 182 -15 192 -66 4 -15 8
-37 11 -49 4 -21 5 -21 35 -6 38 19 241 15 261 -5 10 -10 14 -123 18 -505 l5
-492 35 -3 c53 -5 60 -16 60 -95 0 -108 3 -107 -211 -107 -214 0 -209 -2 -209
104 0 82 7 93 60 98 l35 3 0 400 0 400 -30 3 c-16 2 -35 8 -41 13 -15 12 -24
1 -24 -28 0 -14 -13 -38 -30 -54 l-29 -30 -460 3 -460 3 -23 23 c-22 21 -23
32 -26 176 -3 151 -3 154 21 182 24 27 31 29 112 33 l88 3 -7 662 c-7 802 -4
736 -31 736 -9 0 -18 13 -21 30 -4 16 -10 27 -15 24 -5 -3 -9 6 -9 20 0 14 -5
26 -11 26 -7 0 -9 20 -6 58 7 74 17 122 27 122 4 0 11 12 15 28 4 15 15 35 26
45 15 14 19 32 19 77 l0 60 -57 1 c-83 0 -124 17 -146 59 -16 30 -18 54 -14
170 4 147 14 182 56 199 61 24 783 39 963 20z m-1232 -24 c39 -20 50 -64 50
-208 0 -184 -19 -211 -150 -212 l-75 0 -6 -1280 c-6 -1125 -8 -1291 -23 -1373
-46 -261 -151 -428 -321 -512 -33 -16 -87 -37 -120 -45 -86 -22 -254 -28 -355
-13 l-85 13 -3 43 c-4 49 6 56 63 44 30 -6 41 -13 43 -30 5 -30 34 -36 161
-29 125 6 196 29 271 88 101 79 164 194 207 374 15 63 18 199 23 1396 5 1407
4 1359 50 1359 10 0 23 7 30 15 7 9 35 15 78 17 l67 3 3 110 c3 132 0 148 -33
163 -37 17 -686 17 -703 0 -8 -8 -12 -52 -12 -133 0 -81 4 -125 12 -133 8 -8
46 -12 104 -12 66 0 95 -4 103 -14 9 -10 11 -339 8 -1312 -3 -1403 -1 -1346
-55 -1451 -40 -77 -91 -111 -212 -137 -41 -9 -84 -21 -95 -26 -14 -7 -34 -6
-65 3 -45 13 -45 13 -48 61 l-3 48 33 -6 c18 -4 77 -9 130 -13 85 -5 102 -3
140 16 52 25 84 70 106 148 16 53 17 170 17 1338 l0 1280 -80 5 c-44 3 -90 11
-101 18 -34 18 -44 65 -44 196 0 144 14 184 70 203 25 8 148 12 413 12 317 1
383 -1 407 -14z m3180 -2510 c70 -36 96 -120 62 -198 -63 -142 -246 -95 -246
63 0 110 96 180 184 135z m-438 -83 c8 -8 15 -51 18 -110 l5 -97 62 -5 c34 -3
68 -11 75 -18 18 -18 18 -156 0 -174 -7 -7 -41 -15 -75 -18 l-62 -5 -3 -191
c-1 -115 2 -202 8 -219 11 -29 4 -29 113 -9 24 4 37 1 46 -10 9 -11 18 -13 25
-7 6 5 25 11 41 13 l30 3 3 208 2 207 -25 0 c-46 0 -65 32 -65 107 0 99 5 103
156 103 95 0 126 -3 137 -15 24 -24 30 -105 26 -365 l-4 -245 40 -5 c29 -4 43
-11 52 -30 18 -36 16 -121 -3 -149 -16 -22 -17 -23 -223 -20 -147 2 -217 -1
-245 -10 -24 -9 -69 -12 -121 -9 -103 5 -150 32 -186 105 -23 45 -24 61 -29
293 l-5 245 -32 3 c-46 5 -63 34 -63 107 0 73 17 102 63 107 l32 3 3 80 c3
104 8 124 35 135 31 13 154 7 169 -8z m-2307 -221 c68 -24 76 -43 73 -169 -4
-124 -10 -132 -104 -132 -72 0 -81 8 -86 70 -3 44 -4 45 -41 48 -42 4 -67 -11
-67 -38 0 -27 37 -52 124 -85 89 -34 147 -79 179 -139 34 -64 31 -182 -6 -258
-54 -110 -146 -154 -300 -145 -51 3 -115 13 -144 21 -49 15 -53 20 -64 59 -14
53 -7 200 10 221 10 11 31 16 74 16 76 0 97 -16 97 -75 0 -46 10 -55 60 -55
53 0 80 17 80 49 0 38 -27 59 -132 102 -142 58 -192 127 -190 264 1 123 63
209 181 251 53 19 196 16 256 -5z m600 2 c70 -23 146 -101 175 -178 31 -84 39
-272 16 -376 -28 -125 -99 -224 -196 -272 -38 -18 -62 -22 -150 -22 -124 0
-162 15 -228 91 -53 59 -80 132 -92 246 -26 254 58 442 227 508 62 25 182 26
248 3z m2800 -4 c71 -27 119 -68 151 -132 72 -140 71 -385 -1 -527 -61 -120
-151 -182 -274 -188 -134 -8 -225 29 -283 113 -38 55 -57 115 -70 222 -31 241
61 449 225 512 72 28 179 28 252 0z m789 10 c48 -13 117 -81 135 -134 10 -27
16 -114 20 -270 l6 -230 33 -3 c48 -5 65 -37 60 -113 -6 -88 -9 -89 -205 -89
-152 0 -163 1 -182 21 l-19 21 -21 -21 c-20 -20 -32 -21 -184 -21 -206 0 -207
1 -207 104 0 80 7 92 55 98 l30 3 3 190 c3 214 1 235 -29 235 -39 0 -58 19
-65 65 -3 25 -3 61 0 80 11 59 24 65 147 65 105 0 111 -1 134 -26 23 -25 24
-25 49 -8 65 42 160 55 240 33z m687 -5 c87 -26 89 -30 89 -160 0 -136 -5
-144 -89 -144 -69 0 -88 16 -93 75 -3 36 -6 40 -32 43 -48 6 -76 -6 -76 -32 0
-32 22 -49 129 -94 104 -45 131 -66 169 -132 36 -60 38 -180 5 -252 -53 -115
-150 -164 -307 -155 -124 7 -193 29 -203 65 -14 48 -9 217 6 235 15 19 124 24
150 8 8 -5 17 -31 20 -58 5 -40 10 -49 32 -57 36 -12 97 1 109 24 12 23 -2 60
-31 78 -10 7 -54 26 -97 43 -100 40 -139 70 -168 133 -49 105 -24 246 57 323
69 65 216 90 330 57z m-3368 -11 c13 -15 16 -61 19 -304 2 -224 6 -290 17
-302 19 -24 92 -22 123 3 43 33 49 63 46 240 l-3 165 -39 6 c-21 3 -42 12 -47
20 -5 8 -9 45 -9 83 0 103 4 106 160 106 93 0 131 -4 146 -14 18 -14 19 -31
22 -320 l3 -306 24 0 c33 0 45 -27 45 -104 0 -87 -13 -96 -133 -96 -81 0 -90
2 -110 24 l-21 24 -56 -32 c-50 -28 -63 -31 -145 -31 -83 0 -93 2 -135 30 -32
22 -53 47 -75 90 l-30 60 -5 230 -5 230 -25 3 c-48 7 -60 29 -60 105 0 104 5
107 155 107 103 0 124 -3 138 -17z m3260 -996 c60 -23 109 -46 109 -52 0 -5
-44 -28 -98 -50 l-99 -40 -1185 0 -1185 0 -9 78 c-6 57 -5 81 4 92 11 13 156
15 1184 15 l1171 -1 108 -42z"/>
<path d="M4642 5000 c-119 -4 -187 -11 -195 -19 -17 -17 -16 -246 1 -263 8 -8
48 -14 112 -16 l100 -4 0 -1009 0 -1009 -29 0 c-16 0 -48 -7 -71 -15 -23 -8
-60 -15 -81 -15 l-39 0 0 -123 c0 -82 4 -127 12 -135 9 -9 112 -12 404 -12
216 0 399 3 408 6 13 5 16 25 16 119 0 148 3 145 -161 145 -87 0 -131 4 -143
13 -17 12 -18 38 -17 361 1 210 6 356 12 367 6 12 21 19 39 19 15 0 30 5 32
11 2 7 68 11 188 13 149 3 200 7 262 24 247 67 422 254 496 531 22 84 25 116
25 261 0 138 -3 178 -21 243 -72 260 -240 411 -546 489 -70 18 -117 21 -351
23 -148 2 -352 0 -453 -5z m731 -305 c187 -39 295 -146 328 -321 6 -33 9 -108
6 -169 -12 -293 -146 -434 -456 -480 -53 -8 -131 -15 -173 -15 -128 0 -118
-42 -118 494 0 400 2 456 16 470 8 9 24 16 35 16 11 0 28 7 37 16 14 15 33 16
137 10 66 -3 151 -13 188 -21z"/>
<path d="M5105 4637 c-3 -6 -4 -199 -3 -427 l3 -415 115 2 c183 4 288 47 365
149 54 70 70 140 70 299 0 133 -1 143 -29 202 -66 143 -194 200 -449 202 -45
1 -69 -3 -72 -12z"/>
<path d="M5482 2548 c-7 -7 -12 -27 -12 -45 0 -33 4 -36 65 -45 20 -3 20 -12
23 -441 l2 -438 -50 -21 c-48 -20 -50 -22 -50 -59 0 -36 2 -39 35 -45 55 -10
262 -1 276 13 20 20 1 62 -36 80 -26 12 -38 26 -45 52 -6 21 -10 217 -10 479
0 520 9 482 -113 482 -43 0 -78 -5 -85 -12z"/>
<path d="M7230 2470 c-30 -30 -28 -103 5 -135 52 -53 125 -20 125 56 0 76 -82
127 -130 79z"/>
<path d="M6755 2388 c-3 -13 -6 -57 -7 -98 l-3 -75 -42 -19 c-67 -30 -73 -106
-9 -106 19 0 38 -6 44 -13 7 -8 12 -107 14 -267 3 -236 5 -258 24 -295 12 -22
36 -49 55 -60 66 -39 239 -17 239 30 0 31 -38 55 -88 55 -64 0 -88 19 -101 80
-14 66 -12 351 2 415 l12 50 60 5 c56 5 60 7 63 31 4 36 -19 56 -73 64 -24 4
-49 13 -56 21 -6 7 -14 50 -18 95 -8 91 -21 109 -78 109 -26 0 -34 -5 -38 -22z"/>
<path d="M7183 2173 c-39 -8 -46 -85 -8 -91 11 -1 30 -5 43 -8 l22 -4 -2 -252
-3 -252 -35 -9 c-50 -13 -61 -25 -58 -66 l3 -36 135 -3 c163 -3 180 0 180 33
0 27 -32 65 -55 65 -30 0 -35 39 -35 287 0 281 -6 316 -52 332 -30 11 -91 13
-135 4z"/>
<path d="M4395 2189 c-115 -14 -186 -92 -187 -204 -1 -114 39 -164 178 -217
109 -41 144 -73 144 -132 0 -50 -21 -83 -66 -102 -71 -30 -144 -12 -165 40
-18 44 -39 66 -64 66 -27 0 -35 -22 -35 -102 0 -49 3 -60 23 -72 32 -21 153
-39 217 -31 114 14 178 63 200 155 16 66 6 126 -30 183 -28 45 -62 66 -202
125 -56 24 -83 62 -82 115 2 77 96 122 172 83 29 -15 32 -21 32 -61 0 -45 0
-45 35 -45 45 0 59 26 51 94 -8 69 -34 93 -111 104 -33 4 -83 5 -110 1z"/>
<path d="M4959 2176 c-70 -25 -128 -88 -164 -176 -26 -63 -33 -264 -12 -343
32 -122 101 -196 204 -217 111 -23 227 17 286 98 60 83 72 129 72 287 0 132
-2 143 -28 200 -35 76 -69 111 -132 141 -58 27 -165 32 -226 10z m154 -90 c77
-31 107 -108 107 -266 0 -133 -14 -187 -64 -236 -52 -53 -98 -63 -160 -36 -33
15 -48 30 -65 65 -56 116 -51 326 12 417 25 37 79 70 115 70 12 0 37 -6 55
-14z"/>
<path d="M5021 2037 c-48 -24 -66 -80 -66 -202 0 -165 33 -235 111 -235 49 0
63 9 87 54 19 36 22 56 22 161 0 98 -4 129 -19 164 -29 62 -82 86 -135 58z"/>
<path d="M7732 2164 c-89 -44 -142 -130 -163 -264 -31 -204 41 -398 169 -447
61 -23 162 -24 224 0 61 24 129 97 159 173 20 52 23 76 23 194 0 116 -3 143
-22 190 -49 123 -131 180 -263 180 -61 0 -85 -5 -127 -26z m207 -91 c14 -11
37 -41 51 -69 23 -45 25 -60 25 -184 0 -124 -2 -139 -25 -185 -43 -86 -127
-124 -197 -88 -29 14 -45 34 -68 78 -28 57 -30 67 -30 180 0 170 32 250 115
284 34 15 98 6 129 -16z"/>
<path d="M7800 2022 c-36 -36 -50 -87 -50 -184 0 -160 39 -238 118 -238 53 0
86 38 102 117 16 73 8 206 -15 261 -30 73 -104 94 -155 44z"/>
<path d="M8595 2174 c-16 -8 -45 -29 -62 -46 l-33 -32 -36 43 -36 42 -77 -3
-76 -3 -3 -42 c-3 -41 -2 -43 25 -43 58 0 58 1 61 -246 2 -125 1 -237 -2 -250
-4 -14 -18 -26 -40 -34 -37 -12 -46 -26 -46 -70 0 -25 5 -30 36 -36 53 -10
253 1 266 14 17 17 -5 59 -46 83 -19 11 -37 30 -40 42 -10 38 -7 283 5 337 14
66 68 125 123 135 61 12 107 -4 130 -45 19 -31 21 -56 24 -237 l4 -202 -38
-18 c-35 -16 -39 -22 -42 -59 -3 -36 0 -42 20 -48 30 -8 182 -8 231 0 32 6 37
10 37 35 0 26 -17 46 -66 75 -17 10 -19 31 -24 245 -5 213 -8 238 -27 274 -25
48 -58 80 -96 94 -42 16 -137 13 -172 -5z"/>
<path d="M8628 2022 c-15 -2 -40 -18 -58 -38 l-30 -35 0 -169 0 -170 40 0 c30
0 42 -5 51 -21 l11 -21 14 20 c8 12 27 22 42 24 l27 3 3 161 c4 223 -10 257
-100 246z"/>
<path d="M9225 2172 c-22 -11 -50 -30 -62 -43 -75 -82 -69 -243 12 -307 14
-11 68 -37 120 -57 112 -43 135 -66 135 -135 0 -36 -5 -51 -22 -67 -36 -33
-63 -43 -113 -43 -38 0 -52 5 -76 29 -16 16 -29 36 -29 45 0 22 -28 46 -54 46
-26 0 -36 -29 -36 -106 0 -76 49 -100 206 -98 154 1 244 79 244 213 0 103 -55
171 -180 222 -111 45 -140 73 -140 132 0 34 6 53 24 74 22 25 31 28 84 28 75
0 92 -13 92 -71 0 -44 0 -44 35 -44 40 0 55 20 55 73 0 48 -17 90 -43 107 -14
9 -57 15 -117 17 -78 3 -102 0 -135 -15z"/>
<path d="M5864 2156 c-10 -42 -1 -61 31 -64 55 -7 55 -7 55 -241 0 -119 5
-236 11 -261 24 -105 88 -154 199 -154 72 0 122 20 185 75 20 18 37 30 39 28
3 -2 8 -20 13 -39 12 -44 43 -57 110 -44 63 12 69 40 21 87 l-33 32 -5 281
c-6 343 1 324 -131 324 -85 0 -89 -1 -95 -24 -10 -40 -1 -61 26 -64 76 -8 70
11 70 -213 0 -179 -2 -204 -20 -238 -37 -73 -119 -113 -186 -91 -66 22 -68 34
-74 326 -6 318 0 304 -126 304 -80 0 -84 -1 -90 -24z"/>
</g>
</svg>
